<svg width="19" height="19" viewBox="0 0 19 19" fill="none" xmlns="http://www.w3.org/2000/svg">
<path d="M8.01563 5.04666C8.01505 4.49809 7.86249 3.96042 7.57488 3.4933C7.28727 3.02618 6.87586 2.64788 6.3863 2.40038C5.89674 2.15289 5.34818 2.04587 4.80149 2.09122C4.25481 2.13656 3.73137 2.33249 3.28928 2.65725C2.84718 2.98202 2.50372 3.42293 2.297 3.93106C2.09028 4.43918 2.02838 4.99464 2.11818 5.5358C2.20799 6.07697 2.44597 6.58267 2.80573 6.99678C3.16549 7.4109 3.63296 7.71724 4.15626 7.88181V11.1178C3.47964 11.3305 2.90157 11.7785 2.52668 12.3807C2.1518 12.9828 2.00488 13.6992 2.11252 14.4003C2.22016 15.1014 2.57524 15.7407 3.1135 16.2026C3.65175 16.6646 4.3376 16.9185 5.04688 16.9185C5.75617 16.9185 6.44201 16.6646 6.98027 16.2026C7.51852 15.7407 7.87361 15.1014 7.98125 14.4003C8.08889 13.6992 7.94197 12.9828 7.56708 12.3807C7.1922 11.7785 6.61412 11.3305 5.93751 11.1178V7.88181C6.53943 7.6901 7.06497 7.31228 7.43843 6.80277C7.81189 6.29327 8.014 5.67837 8.01563 5.04666ZM5.04688 3.85916C5.28175 3.85916 5.51134 3.9288 5.70662 4.05929C5.9019 4.18977 6.05411 4.37523 6.14399 4.59222C6.23387 4.80921 6.25738 5.04797 6.21156 5.27833C6.16574 5.50868 6.05265 5.72027 5.88657 5.88635C5.7205 6.05242 5.5089 6.16552 5.27855 6.21134C5.0482 6.25716 4.80943 6.23364 4.59245 6.14376C4.37546 6.05388 4.19 5.90168 4.05951 5.7064C3.92903 5.51111 3.85938 5.28152 3.85938 5.04666C3.85938 4.73171 3.98449 4.42967 4.20719 4.20697C4.42989 3.98427 4.73194 3.85916 5.04688 3.85916ZM5.04688 15.1404C4.81202 15.1404 4.58243 15.0708 4.38714 14.9403C4.19186 14.8098 4.03965 14.6243 3.94977 14.4073C3.8599 14.1904 3.83638 13.9516 3.8822 13.7212C3.92802 13.4909 4.04112 13.2793 4.20719 13.1132C4.37327 12.9471 4.58486 12.834 4.81521 12.7882C5.04556 12.7424 5.28433 12.7659 5.50132 12.8558C5.71831 12.9457 5.90377 13.0979 6.03425 13.2932C6.16474 13.4885 6.23438 13.718 6.23438 13.9529C6.23438 14.2679 6.10927 14.5699 5.88657 14.7926C5.66387 15.0153 5.36183 15.1404 5.04688 15.1404ZM14.8438 11.1178V8.89861C14.8461 8.31359 14.7318 7.73397 14.5075 7.19364C14.2832 6.65331 13.9535 6.16312 13.5375 5.75173L12.2461 4.45291H13.0625C13.2987 4.45291 13.5252 4.35907 13.6923 4.19205C13.8593 4.02502 13.9531 3.79849 13.9531 3.56228C13.9531 3.32607 13.8593 3.09954 13.6923 2.93251C13.5252 2.76549 13.2987 2.67166 13.0625 2.67166H10.0938C9.85755 2.67166 9.63101 2.76549 9.46399 2.93251C9.29697 3.09954 9.20313 3.32607 9.20313 3.56228V6.53103C9.20313 6.76724 9.29697 6.99377 9.46399 7.1608C9.63101 7.32782 9.85755 7.42166 10.0938 7.42166C10.33 7.42166 10.5565 7.32782 10.7235 7.1608C10.8905 6.99377 10.9844 6.76724 10.9844 6.53103V5.71462L12.2832 7.00603C12.5314 7.25455 12.7281 7.54971 12.8618 7.87451C12.9956 8.19931 13.0638 8.54735 13.0625 8.89861V11.1178C12.3859 11.3305 11.8078 11.7785 11.4329 12.3807C11.058 12.9828 10.9111 13.6992 11.0188 14.4003C11.1264 15.1014 11.4815 15.7407 12.0197 16.2026C12.558 16.6646 13.2438 16.9185 13.9531 16.9185C14.6624 16.9185 15.3483 16.6646 15.8865 16.2026C16.4248 15.7407 16.7799 15.1014 16.8875 14.4003C16.9951 13.6992 16.8482 12.9828 16.4733 12.3807C16.0984 11.7785 15.5204 11.3305 14.8438 11.1178ZM13.9531 15.1404C13.7183 15.1404 13.4887 15.0708 13.2934 14.9403C13.0981 14.8098 12.9459 14.6243 12.856 14.4073C12.7661 14.1904 12.7426 13.9516 12.7884 13.7212C12.8343 13.4909 12.9474 13.2793 13.1134 13.1132C13.2795 12.9471 13.4911 12.834 13.7215 12.7882C13.9518 12.7424 14.1906 12.7659 14.4076 12.8558C14.6246 12.9457 14.81 13.0979 14.9405 13.2932C15.071 13.4885 15.1406 13.718 15.1406 13.9529C15.1406 14.2679 15.0155 14.5699 14.7928 14.7926C14.5701 15.0153 14.2681 15.1404 13.9531 15.1404Z" fill="white"/>
</svg>
