<svg width="508" height="391" viewBox="0 0 508 391" fill="none" xmlns="http://www.w3.org/2000/svg">
<path d="M489.089 285.428H432.476V360.212H489.089V285.428Z" fill="#F5F5F5"/>
<path d="M489.088 285.428H462.545V360.212H489.088V285.428Z" fill="#EBEBEB"/>
<path d="M449.433 295.552H444.342V307.938H449.433V295.552Z" fill="#EBEBEB"/>
<path d="M449.433 344.028H444.342V356.414H449.433V344.028Z" fill="#EBEBEB"/>
<path d="M462.545 312.792C462.545 312.898 455.813 312.984 447.516 312.984C439.218 312.984 432.476 312.898 432.476 312.792C432.476 312.685 439.208 312.6 447.516 312.6C455.824 312.6 462.545 312.685 462.545 312.792Z" fill="#EBEBEB"/>
<path d="M449.433 319.972H444.342V332.357H449.433V319.972Z" fill="#EBEBEB"/>
<path d="M462.545 337.222C462.545 337.329 455.813 337.414 447.516 337.414C439.218 337.414 432.476 337.329 432.476 337.222C432.476 337.115 439.208 337.019 447.516 337.019C455.824 337.019 462.545 337.115 462.545 337.222Z" fill="#EBEBEB"/>
<path d="M473.271 295.552H468.179V307.938H473.271V295.552Z" fill="#E0E0E0"/>
<path d="M484.316 295.552H479.225V307.938H484.316V295.552Z" fill="#E0E0E0"/>
<path d="M473.271 319.054H468.179V331.44H473.271V319.054Z" fill="#E0E0E0"/>
<path d="M484.316 319.054H479.225V331.44H484.316V319.054Z" fill="#E0E0E0"/>
<path d="M473.271 342.556H468.179V354.942H473.271V342.556Z" fill="#E0E0E0"/>
<path d="M484.316 342.556H479.225V354.942H484.316V342.556Z" fill="#E0E0E0"/>
<path d="M493.339 282.814H428.215V285.513H493.339V282.814Z" fill="#E0E0E0"/>
<path d="M489.483 285.769C489.483 285.876 476.829 285.961 461.225 285.961C445.62 285.961 432.966 285.876 432.966 285.769C432.966 285.663 445.62 285.577 461.225 285.577C476.829 285.577 489.483 285.663 489.483 285.769Z" fill="#F5F5F5"/>
<path d="M369.642 96.5045H268.707V361.097H369.642V96.5045Z" fill="#EBEBEB"/>
<path d="M369.631 96.5045H319.163V361.097H369.631V96.5045Z" fill="#E0E0E0"/>
<path d="M315.872 65.0547H280.232V96.5045H315.872V65.0547Z" fill="#EBEBEB"/>
<path d="M315.862 65.0547H307.373V96.5045H315.862V65.0547Z" fill="#E0E0E0"/>
<path d="M372.582 94.6696H260.293V96.5045H372.582V94.6696Z" fill="#E0E0E0"/>
<path d="M297.169 110.224H288.626V128.264H297.169V110.224Z" fill="white"/>
<path d="M319.164 135.347C319.164 135.539 307.873 135.689 293.941 135.689C280.009 135.689 268.707 135.539 268.707 135.347C268.707 135.155 279.998 134.995 293.941 134.995C307.884 134.995 319.164 135.145 319.164 135.347Z" fill="#E0E0E0"/>
<path d="M348.072 110.224H339.53V128.264H348.072V110.224Z" fill="#F5F5F5"/>
<path d="M370.067 135.347C370.067 135.539 358.777 135.689 344.845 135.689C330.912 135.689 319.611 135.539 319.611 135.347C319.611 135.155 330.902 134.995 344.845 134.995C358.787 134.995 370.067 135.145 370.067 135.347Z" fill="#EBEBEB"/>
<path d="M348.072 146.037H339.53V164.077H348.072V146.037Z" fill="#F5F5F5"/>
<path d="M370.067 171.161C370.067 171.353 358.777 171.513 344.845 171.513C330.912 171.513 319.611 171.353 319.611 171.161C319.611 170.969 330.902 170.819 344.845 170.819C358.787 170.819 370.067 170.979 370.067 171.161Z" fill="#EBEBEB"/>
<path d="M348.072 182.938H339.53V200.978H348.072V182.938Z" fill="#F5F5F5"/>
<path d="M370.067 208.062C370.067 208.254 358.777 208.414 344.845 208.414C330.912 208.414 319.611 208.254 319.611 208.062C319.611 207.87 330.902 207.72 344.845 207.72C358.787 207.72 370.067 207.88 370.067 208.062Z" fill="#EBEBEB"/>
<path d="M348.072 219.85H339.53V237.89H348.072V219.85Z" fill="#F5F5F5"/>
<path d="M370.067 244.963C370.067 245.155 358.777 245.315 344.845 245.315C330.912 245.315 319.611 245.155 319.611 244.963C319.611 244.771 330.902 244.622 344.845 244.622C358.787 244.622 370.067 244.782 370.067 244.963Z" fill="#EBEBEB"/>
<path d="M348.072 255.696H339.53V273.735H348.072V255.696Z" fill="#F5F5F5"/>
<path d="M370.067 280.819C370.067 281.001 358.777 281.161 344.845 281.161C330.912 281.161 319.611 281.001 319.611 280.819C319.611 280.638 330.902 280.467 344.845 280.467C358.787 280.467 370.067 280.627 370.067 280.819Z" fill="#EBEBEB"/>
<path d="M348.072 291.679H339.53V309.719H348.072V291.679Z" fill="#F5F5F5"/>
<path d="M348.072 328.143H339.53V346.183H348.072V328.143Z" fill="#F5F5F5"/>
<path d="M370.067 316.803C370.067 316.995 358.777 317.155 344.845 317.155C330.912 317.155 319.611 316.995 319.611 316.803C319.611 316.611 330.902 316.462 344.845 316.462C358.787 316.462 370.067 316.611 370.067 316.803Z" fill="#EBEBEB"/>
<path d="M297.169 146.592H288.626V164.632H297.169V146.592Z" fill="white"/>
<path d="M319.164 171.715C319.164 171.897 307.873 172.057 293.941 172.057C280.009 172.057 268.707 171.897 268.707 171.715C268.707 171.534 279.998 171.363 293.941 171.363C307.884 171.363 319.164 171.523 319.164 171.715Z" fill="#E0E0E0"/>
<path d="M297.169 182.96H288.626V201H297.169V182.96Z" fill="white"/>
<path d="M319.164 208.083C319.164 208.265 307.873 208.425 293.941 208.425C280.009 208.425 268.707 208.265 268.707 208.083C268.707 207.902 279.998 207.731 293.941 207.731C307.884 207.731 319.164 207.891 319.164 208.083Z" fill="#E0E0E0"/>
<path d="M297.169 219.328H288.626V237.368H297.169V219.328Z" fill="white"/>
<path d="M319.164 244.451C319.164 244.633 307.873 244.793 293.941 244.793C280.009 244.793 268.707 244.633 268.707 244.451C268.707 244.27 279.998 244.099 293.941 244.099C307.884 244.099 319.164 244.259 319.164 244.451Z" fill="#E0E0E0"/>
<path d="M297.169 255.696H288.626V273.735H297.169V255.696Z" fill="white"/>
<path d="M319.164 280.819C319.164 281.001 307.873 281.161 293.941 281.161C280.009 281.161 268.707 281.001 268.707 280.819C268.707 280.638 279.998 280.467 293.941 280.467C307.884 280.467 319.164 280.627 319.164 280.819Z" fill="#E0E0E0"/>
<path d="M297.169 292.063H288.626V310.103H297.169V292.063Z" fill="white"/>
<path d="M319.164 317.187C319.164 317.368 307.873 317.528 293.941 317.528C280.009 317.528 268.707 317.368 268.707 317.187C268.707 317.006 279.998 316.835 293.941 316.835C307.884 316.835 319.164 316.995 319.164 317.187Z" fill="#E0E0E0"/>
<path d="M297.169 328.432H288.626V346.471H297.169V328.432Z" fill="white"/>
<path d="M228.988 258.394H151.593V360.638H228.988V258.394Z" fill="#EBEBEB"/>
<path d="M228.988 258.394H192.698V360.638H228.988V258.394Z" fill="#E0E0E0"/>
<path d="M174.771 272.231H167.815V289.162H174.771V272.231Z" fill="#F5F5F5"/>
<path d="M174.771 338.513H167.815V355.443H174.771V338.513Z" fill="#F5F5F5"/>
<path d="M192.698 295.818C192.698 296 183.495 296.16 172.14 296.16C160.786 296.16 151.593 296 151.593 295.818C151.593 295.637 160.796 295.466 172.14 295.466C183.484 295.466 192.698 295.626 192.698 295.818Z" fill="#F5F5F5"/>
<path d="M174.771 305.623H167.815V322.553H174.771V305.623Z" fill="#F5F5F5"/>
<path d="M192.698 329.199C192.698 329.391 183.495 329.551 172.14 329.551C160.786 329.551 151.593 329.391 151.593 329.199C151.593 329.007 160.796 328.858 172.14 328.858C183.484 328.858 192.698 329.018 192.698 329.199Z" fill="#F5F5F5"/>
<path d="M207.355 272.231H200.399V289.162H207.355V272.231Z" fill="#F5F5F5"/>
<path d="M222.459 272.231H215.503V289.162H222.459V272.231Z" fill="#F5F5F5"/>
<path d="M207.355 304.364H200.399V321.294H207.355V304.364Z" fill="#F5F5F5"/>
<path d="M222.459 304.364H215.503V321.294H222.459V304.364Z" fill="#F5F5F5"/>
<path d="M207.355 336.496H200.399V353.427H207.355V336.496Z" fill="#F5F5F5"/>
<path d="M222.459 336.496H215.503V353.427H222.459V336.496Z" fill="#F5F5F5"/>
<path d="M234.814 254.831H145.777V258.522H234.814V254.831Z" fill="#E0E0E0"/>
<path d="M229.531 258.896C229.531 259.088 212.232 259.248 190.897 259.248C169.562 259.248 152.253 259.088 152.253 258.896C152.253 258.704 169.552 258.555 190.897 258.555C212.243 258.555 229.531 258.683 229.531 258.896Z" fill="#EBEBEB"/>
<path d="M393.917 131.613L462.481 131.944C462.481 131.944 455.984 117.009 442.105 117.009C431.528 117.009 431.059 123.602 424.7 125.49C418.341 127.378 404.963 115.835 393.917 131.613Z" fill="#EBEBEB"/>
<path d="M97.8989 58.4938L218.475 58.9952C218.475 58.9952 207.056 32.8261 182.653 32.8154C164.056 32.8154 163.225 44.4118 152.062 47.7509C140.899 51.0901 117.37 30.7458 97.8989 58.4938Z" fill="#F5F5F5"/>
<path d="M339.733 19.3521L430.58 19.7255C430.58 19.7255 422.006 0.0106682 403.589 0C389.571 0 388.954 8.73726 380.539 11.2336C372.124 13.73 354.368 -1.55756 339.733 19.3521Z" fill="#FAFAFA"/>
<path d="M500.134 360.244C500.134 360.404 388.165 360.521 250.078 360.521C111.991 360.521 0 360.404 0 360.244C0 360.084 111.937 359.966 250.078 359.966C388.218 359.966 500.134 360.094 500.134 360.244Z" fill="#263238"/>
<path d="M448.921 205.395H389.901V360.116H448.921V205.395Z" fill="#455A64"/>
<path d="M448.91 205.395H419.405V360.116H448.91V205.395Z" fill="#2E2E48"/>
<path d="M417.488 187.003H396.643V205.395H417.488V187.003Z" fill="#455A64"/>
<path d="M417.478 187.003H412.514V205.395H417.478V187.003Z" fill="#2E2E48"/>
<path d="M450.646 204.318H384.979V205.395H450.646V204.318Z" fill="#455A64"/>
<path d="M406.549 213.417H401.553V223.968H406.549V213.417Z" fill="#2E2E48"/>
<path d="M419.405 228.108C419.405 228.214 412.802 228.31 404.653 228.31C396.505 228.31 389.901 228.214 389.901 228.108C389.901 228.001 396.505 227.905 404.653 227.905C412.802 227.905 419.405 227.958 419.405 228.108Z" fill="#2E2E48"/>
<path d="M436.31 213.417H431.314V223.968H436.31V213.417Z" fill="#455A64"/>
<path d="M449.176 228.108C449.176 228.214 442.572 228.31 434.424 228.31C426.275 228.31 419.671 228.214 419.671 228.108C419.671 228.001 426.275 227.905 434.424 227.905C442.572 227.905 449.176 227.958 449.176 228.108Z" fill="#455A64"/>
<path d="M436.31 234.359H431.314V244.91H436.31V234.359Z" fill="#455A64"/>
<path d="M449.176 249.049C449.176 249.167 442.572 249.252 434.424 249.252C426.275 249.252 419.671 249.167 419.671 249.049C419.671 248.932 426.275 248.847 434.424 248.847C442.572 248.847 449.176 248.943 449.176 249.049Z" fill="#455A64"/>
<path d="M436.31 255.941H431.314V266.492H436.31V255.941Z" fill="#455A64"/>
<path d="M449.176 270.631C449.176 270.738 442.572 270.834 434.424 270.834C426.275 270.834 419.671 270.738 419.671 270.631C419.671 270.524 426.275 270.428 434.424 270.428C442.572 270.428 449.176 270.514 449.176 270.631Z" fill="#455A64"/>
<path d="M436.31 277.512H431.314V288.063H436.31V277.512Z" fill="#455A64"/>
<path d="M449.176 292.202C449.176 292.32 442.572 292.405 434.424 292.405C426.275 292.405 419.671 292.32 419.671 292.202C419.671 292.085 426.275 292.01 434.424 292.01C442.572 292.01 449.176 292.095 449.176 292.202Z" fill="#455A64"/>
<path d="M436.31 298.475H431.314V309.026H436.31V298.475Z" fill="#455A64"/>
<path d="M449.176 313.165C449.176 313.282 442.572 313.368 434.424 313.368C426.275 313.368 419.671 313.282 419.671 313.165C419.671 313.048 426.275 312.962 434.424 312.962C442.572 312.962 449.176 313.058 449.176 313.165Z" fill="#455A64"/>
<path d="M436.31 319.523H431.314V330.074H436.31V319.523Z" fill="#455A64"/>
<path d="M436.31 340.849H431.314V351.4H436.31V340.849Z" fill="#455A64"/>
<path d="M449.176 334.214C449.176 334.331 442.572 334.416 434.424 334.416C426.275 334.416 419.671 334.331 419.671 334.214C419.671 334.096 426.275 334.011 434.424 334.011C442.572 334.011 449.176 334.107 449.176 334.214Z" fill="#455A64"/>
<path d="M406.549 234.679H401.553V245.23H406.549V234.679Z" fill="#2E2E48"/>
<path d="M419.405 249.369C419.405 249.476 412.802 249.572 404.653 249.572C396.505 249.572 389.901 249.476 389.901 249.369C389.901 249.263 396.505 249.167 404.653 249.167C412.802 249.167 419.405 249.295 419.405 249.369Z" fill="#2E2E48"/>
<path d="M406.549 255.941H401.553V266.492H406.549V255.941Z" fill="#2E2E48"/>
<path d="M419.405 270.631C419.405 270.749 412.802 270.834 404.653 270.834C396.505 270.834 389.901 270.749 389.901 270.631C389.901 270.514 396.505 270.439 404.653 270.439C412.802 270.439 419.405 270.525 419.405 270.631Z" fill="#2E2E48"/>
<path d="M406.549 277.213H401.553V287.764H406.549V277.213Z" fill="#2E2E48"/>
<path d="M419.405 291.903C419.405 292.01 412.802 292.106 404.653 292.106C396.505 292.106 389.901 292.01 389.901 291.903C389.901 291.797 396.505 291.701 404.653 291.701C412.802 291.701 419.405 291.786 419.405 291.903Z" fill="#2E2E48"/>
<path d="M406.549 298.475H401.553V309.026H406.549V298.475Z" fill="#2E2E48"/>
<path d="M419.405 313.165C419.405 313.282 412.802 313.368 404.653 313.368C396.505 313.368 389.901 313.282 389.901 313.165C389.901 313.048 396.505 312.962 404.653 312.962C412.802 312.962 419.405 313.058 419.405 313.165Z" fill="#2E2E48"/>
<path d="M406.549 319.747H401.553V330.298H406.549V319.747Z" fill="#2E2E48"/>
<path d="M419.405 334.438C419.405 334.544 412.802 334.64 404.653 334.64C396.505 334.64 389.901 334.544 389.901 334.438C389.901 334.331 396.505 334.235 404.653 334.235C412.802 334.235 419.405 334.32 419.405 334.438Z" fill="#2E2E48"/>
<path d="M406.549 341.009H401.553V351.56H406.549V341.009Z" fill="#2E2E48"/>
<path d="M301.131 150.102H222.171V360.18H301.131V150.102Z" fill="#455A64"/>
<path d="M301.141 150.102H270.837V360.18H301.141V150.102Z" fill="#2E2E48"/>
<path d="M288.988 166.68H282.991V179.354H288.988V166.68Z" fill="#455A64"/>
<path d="M288.988 188.913H282.991V201.587H288.988V188.913Z" fill="#455A64"/>
<path d="M288.988 213.812H282.991V226.486H288.988V213.812Z" fill="#455A64"/>
<path d="M288.988 237.602H282.991V250.276H288.988V237.602Z" fill="#455A64"/>
<path d="M288.988 261.403H282.991V274.077H288.988V261.403Z" fill="#455A64"/>
<path d="M288.988 285.193H282.991V297.867H288.988V285.193Z" fill="#455A64"/>
<path d="M288.988 308.994H282.991V321.668H288.988V308.994Z" fill="#455A64"/>
<path d="M288.988 335.152H282.991V347.826H288.988V335.152Z" fill="#455A64"/>
<path d="M305.072 148.779H215.301V151.232H305.072V148.779Z" fill="#2E2E48"/>
<path d="M285.995 133.993H254.03V150.006H285.995V133.993Z" fill="#2E2E48"/>
<path d="M270.838 133.993H254.03V148.779H270.838V133.993Z" fill="#455A64"/>
<path d="M239.404 166.157H233.407V178.831H239.404V166.157Z" fill="#2E2E48"/>
<path d="M255.382 166.157H249.385V178.831H255.382V166.157Z" fill="#2E2E48"/>
<path d="M239.404 190.299H233.407V202.973H239.404V190.299Z" fill="#2E2E48"/>
<path d="M255.382 190.299H249.385V202.973H255.382V190.299Z" fill="#2E2E48"/>
<path d="M239.404 214.442H233.407V227.115H239.404V214.442Z" fill="#2E2E48"/>
<path d="M255.382 214.442H249.385V227.115H255.382V214.442Z" fill="#2E2E48"/>
<path d="M239.404 238.584H233.407V251.258H239.404V238.584Z" fill="#2E2E48"/>
<path d="M255.382 238.584H249.385V251.258H255.382V238.584Z" fill="#2E2E48"/>
<path d="M239.404 262.726H233.407V275.4H239.404V262.726Z" fill="#2E2E48"/>
<path d="M255.382 262.726H249.385V275.4H255.382V262.726Z" fill="#2E2E48"/>
<path d="M239.404 286.868H233.407V299.542H239.404V286.868Z" fill="#2E2E48"/>
<path d="M255.382 286.868H249.385V299.542H255.382V286.868Z" fill="#2E2E48"/>
<path d="M239.404 311.01H233.407V323.684H239.404V311.01Z" fill="#2E2E48"/>
<path d="M255.382 311.01H249.385V323.684H255.382V311.01Z" fill="#2E2E48"/>
<path d="M239.404 335.152H233.407V347.826H239.404V335.152Z" fill="#2E2E48"/>
<path d="M255.382 335.152H249.385V347.826H255.382V335.152Z" fill="#2E2E48"/>
<path d="M270.838 183.803C270.838 184.016 259.941 184.187 246.51 184.187C233.078 184.187 222.171 184.016 222.171 183.803C222.171 183.589 233.067 183.429 246.51 183.429C259.952 183.429 270.838 183.6 270.838 183.803Z" fill="#2E2E48"/>
<path d="M270.838 208.03C270.838 208.243 259.941 208.414 246.51 208.414C233.078 208.414 222.171 208.243 222.171 208.03C222.171 207.817 233.067 207.657 246.51 207.657C259.952 207.657 270.838 207.827 270.838 208.03Z" fill="#2E2E48"/>
<path d="M270.838 232.556C270.838 232.759 259.941 232.93 246.51 232.93C233.078 232.93 222.171 232.759 222.171 232.556C222.171 232.353 233.067 232.172 246.51 232.172C259.952 232.172 270.838 232.343 270.838 232.556Z" fill="#2E2E48"/>
<path d="M270.838 256.901C270.838 257.104 259.941 257.275 246.51 257.275C233.078 257.275 222.171 257.104 222.171 256.901C222.171 256.698 233.067 256.517 246.51 256.517C259.952 256.517 270.838 256.688 270.838 256.901Z" fill="#2E2E48"/>
<path d="M270.838 280.894C270.838 281.097 259.941 281.267 246.51 281.267C233.078 281.267 222.171 281.097 222.171 280.894C222.171 280.691 233.067 280.51 246.51 280.51C259.952 280.51 270.838 280.68 270.838 280.894Z" fill="#2E2E48"/>
<path d="M270.838 304.236C270.838 304.439 259.941 304.609 246.51 304.609C233.078 304.609 222.171 304.439 222.171 304.236C222.171 304.033 233.067 303.852 246.51 303.852C259.952 303.852 270.838 304.023 270.838 304.236Z" fill="#2E2E48"/>
<path d="M270.838 330.106C270.838 330.309 259.941 330.48 246.51 330.48C233.078 330.48 222.171 330.309 222.171 330.106C222.171 329.904 233.067 329.722 246.51 329.722C259.952 329.722 270.838 329.893 270.838 330.106Z" fill="#2E2E48"/>
<path d="M300.79 183.803C300.79 184.016 294.303 184.187 286.304 184.187C278.305 184.187 271.818 184.016 271.818 183.803C271.818 183.589 278.294 183.429 286.304 183.429C294.314 183.429 300.79 183.6 300.79 183.803Z" fill="#455A64"/>
<path d="M300.79 208.03C300.79 208.243 294.303 208.414 286.304 208.414C278.305 208.414 271.818 208.243 271.818 208.03C271.818 207.817 278.294 207.657 286.304 207.657C294.314 207.657 300.79 207.827 300.79 208.03Z" fill="#455A64"/>
<path d="M300.79 232.225C300.79 232.439 294.303 232.609 286.304 232.609C278.305 232.609 271.818 232.471 271.818 232.225C271.818 231.98 278.294 231.852 286.304 231.852C294.314 231.852 300.79 232.055 300.79 232.225Z" fill="#455A64"/>
<path d="M300.47 256.901C300.47 257.104 293.983 257.275 285.984 257.275C277.984 257.275 271.497 257.104 271.497 256.901C271.497 256.698 277.984 256.517 285.984 256.517C293.983 256.517 300.47 256.688 300.47 256.901Z" fill="#455A64"/>
<path d="M300.47 280.894C300.47 281.097 293.983 281.267 285.984 281.267C277.984 281.267 271.497 281.097 271.497 280.894C271.497 280.691 277.984 280.51 285.984 280.51C293.983 280.51 300.47 280.68 300.47 280.894Z" fill="#455A64"/>
<path d="M300.47 304.887C300.47 305.089 293.983 305.26 285.984 305.26C277.984 305.26 271.497 305.089 271.497 304.887C271.497 304.684 277.984 304.503 285.984 304.503C293.983 304.503 300.47 304.673 300.47 304.887Z" fill="#455A64"/>
<path d="M300.47 330.106C300.47 330.309 293.983 330.48 285.984 330.48C277.984 330.48 271.497 330.309 271.497 330.106C271.497 329.904 277.984 329.722 285.984 329.722C293.983 329.722 300.47 329.893 300.47 330.106Z" fill="#455A64"/>
<path d="M315.702 287.071H283.865V360.244H315.702V287.071Z" fill="#3949BA"/>
<path d="M276 287.988H354.555L361.894 277.554L369.233 267.121L384.614 288.585L402.7 288.297L383.208 262L295.62 262.373L276 287.988Z" fill="black"/>
<path d="M315.702 287.081V360.244H394.151V287.081H385.15L369.652 265.905L354.921 286.751L315.702 287.081Z" fill="black"/>
<g opacity="0.2">
<path d="M326.79 360.244V328.527H345.132V360.244" fill="black"/>
</g>
<path opacity="0.7" d="M385.044 327.631H356.136V345.564H385.044V327.631Z" fill="white"/>
<path opacity="0.7" d="M385.044 291.743H356.136V309.677H385.044V291.743Z" fill="white"/>
<path opacity="0.7" d="M343.215 291.904H324.99V309.186H343.215V291.904Z" fill="white"/>
<path d="M364.613 327.631H364.347V345.735H364.613V327.631Z" fill="#FF725E"/>
<path d="M376.629 327.631H376.362V345.735H376.629V327.631Z" fill="#FF725E"/>
<path d="M376.49 337.094H364.475V337.361H376.49V337.094Z" fill="#FF725E"/>
<path d="M364.613 291.743H364.347V309.847H364.613V291.743Z" fill="#FF725E"/>
<path d="M376.629 291.743H376.362V309.847H376.629V291.743Z" fill="#FF725E"/>
<path d="M376.49 301.206H364.475V301.473H376.49V301.206Z" fill="#FF725E"/>
<path d="M334.235 291.904H333.969V309.186H334.235V291.904Z" fill="#FF725E"/>
<path d="M343.215 300.833H324.99V301.099H343.215V300.833Z" fill="#FF725E"/>
<path opacity="0.7" d="M373.475 279.87C373.475 280.636 373.249 281.384 372.824 282.021C372.399 282.658 371.795 283.154 371.088 283.448C370.382 283.741 369.605 283.817 368.855 283.668C368.104 283.518 367.416 283.15 366.875 282.608C366.334 282.066 365.966 281.376 365.817 280.625C365.667 279.874 365.744 279.095 366.037 278.388C366.329 277.68 366.825 277.075 367.461 276.65C368.097 276.224 368.844 275.997 369.609 275.997C370.633 276 371.615 276.409 372.34 277.135C373.064 277.86 373.473 278.844 373.475 279.87Z" fill="white"/>
<path d="M342.032 275.122L346.91 269.095V254.597H336.695V275.229L342.032 275.122Z" fill="#2E2E48"/>
<path opacity="0.2" d="M342.033 275.122V254.597H346.911V269.095L342.033 275.122Z" fill="black"/>
<path d="M347.603 252.463H335.557V254.597H347.603V252.463Z" fill="#383854"/>
<path d="M316.607 319.086H256.458V360.255H316.607V319.086Z" fill="black"/>
<path d="M285.738 360.18C285.698 360.005 285.68 359.826 285.685 359.647C285.685 359.231 285.685 358.718 285.685 358.1C285.685 356.67 285.685 354.729 285.6 352.307C285.6 347.293 285.536 340.369 285.493 332.357L285.792 332.656H263.775L264.062 332.357C264.062 340.369 263.988 347.293 263.956 352.307C263.956 354.729 263.892 356.67 263.871 358.1C263.871 358.718 263.871 359.231 263.817 359.647C263.836 359.824 263.836 360.003 263.817 360.18C263.77 360.006 263.752 359.826 263.764 359.647C263.764 359.231 263.764 358.718 263.764 358.1C263.764 356.67 263.764 354.729 263.679 352.307C263.679 347.303 263.615 340.369 263.573 332.357V332.059H286.133V332.357C286.079 340.369 286.047 347.293 286.015 352.307C286.015 354.729 285.951 356.67 285.93 358.1C285.93 358.718 285.93 359.231 285.93 359.647C285.883 359.83 285.819 360.009 285.738 360.18Z" fill="black"/>
<path opacity="0.2" d="M313.817 331.301H298.191V335.291H313.817V331.301Z" fill="black"/>
<path d="M276.419 286.772V288.895H354.921V286.751L276.419 286.772Z" fill="#25253A"/>
<path d="M354.921 288.895L369.609 268.252L369.652 265.905L354.974 286.772L354.921 288.895Z" fill="#25253A"/>
<path d="M402.735 287.071H385.15V288.436H402.735V287.071Z" fill="#2E2E48"/>
<path d="M338.879 323.663H332.392V326.138H338.879V323.663Z" fill="#263238"/>
<path d="M343.651 344.53C343.598 344.53 343.651 344.124 343.172 343.815C343.049 343.732 342.909 343.68 342.763 343.664C342.616 343.647 342.468 343.666 342.33 343.719C342.169 343.784 342.031 343.896 341.934 344.041C341.837 344.185 341.785 344.355 341.785 344.53C341.785 344.704 341.837 344.874 341.934 345.018C342.031 345.163 342.169 345.275 342.33 345.34C342.468 345.393 342.616 345.412 342.763 345.396C342.909 345.379 343.049 345.327 343.172 345.244C343.608 344.935 343.598 344.519 343.651 344.53C343.704 344.54 343.832 344.988 343.331 345.458C343.177 345.584 342.994 345.669 342.798 345.704C342.603 345.739 342.401 345.724 342.213 345.66C341.977 345.58 341.773 345.428 341.628 345.225C341.483 345.022 341.405 344.779 341.405 344.53C341.405 344.28 341.483 344.037 341.628 343.834C341.773 343.632 341.977 343.479 342.213 343.399C342.401 343.335 342.603 343.32 342.798 343.355C342.994 343.391 343.177 343.475 343.331 343.601C343.832 344.082 343.683 344.562 343.651 344.53Z" fill="#263238"/>
<path d="M194.327 238.989C194.327 238.989 177.807 301.931 155.598 313.752C140.963 321.539 128.043 312.247 119.383 297.525L88.0673 247.043C87.2691 244.166 87.5959 241.093 88.9812 238.449C90.3665 235.805 92.7061 233.789 95.5234 232.812L121.63 223.691L147.642 270.129L180.928 229.59" fill="#EB996E"/>
<path d="M31.7738 243.374C32.349 247.47 42.649 277.587 42.649 277.587C42.649 277.587 89.3881 264.347 88.8981 262.022C88.4934 260.133 81.1864 230.134 71.4296 213.225C69.6005 209.966 67.0354 207.18 63.9393 205.09C60.8433 203.001 57.3021 201.666 53.5988 201.192C51.5324 200.957 46.9416 202.877 45.6741 203.507C35.7255 208.489 27.3214 211.732 31.7738 243.374Z" fill="#455A64"/>
<path d="M105.056 199.154C123.004 204.157 123.814 212.329 132.804 226.742L146.96 252.559L123.377 267.612L119.053 277.32L116.72 360.809L21.6973 360.34L38.7398 292.757L31.9441 248.377C31.3156 241.379 29.3025 228.299 31.4541 221.546C38.1966 200.445 63.3449 198.194 78.811 194.993C82.0065 194.332 85.0848 195.345 87.6837 196.135" fill="#455A64"/>
<path d="M118.818 281.609C118.745 280.9 118.723 280.187 118.755 279.475C118.755 277.981 118.755 275.997 118.829 273.607V273.554C120.017 271.44 121.053 269.244 121.929 266.982C123.021 264.299 123.295 261.351 122.717 258.512C121.95 255.311 120.182 252.623 119 249.977C117.926 247.607 117.208 245.09 116.869 242.51C116.646 240.787 116.6 239.046 116.731 237.314C116.731 236.695 116.848 236.247 116.901 235.906C116.912 235.74 116.951 235.578 117.018 235.426C117.056 236.058 117.056 236.692 117.018 237.325C116.975 239.038 117.085 240.752 117.349 242.446C117.736 244.956 118.478 247.399 119.553 249.7C120.725 252.303 122.536 255.034 123.345 258.341C123.955 261.297 123.662 264.367 122.504 267.153C121.608 269.429 120.539 271.633 119.308 273.746V273.639C119.191 276.029 119.106 278.013 119.032 279.507C119.023 280.212 118.952 280.916 118.818 281.609Z" fill="#263238"/>
<path d="M105.802 196.22C105.884 196.425 105.937 196.641 105.962 196.86C106.077 197.484 106.148 198.115 106.175 198.748C106.26 201.096 105.869 203.437 105.025 205.629C103.774 208.904 101.616 211.754 98.8042 213.844C95.2813 216.357 90.9632 217.495 86.6614 217.044C84.4506 216.818 82.2918 216.231 80.2705 215.306C78.4021 214.426 76.6867 213.252 75.1897 211.828C72.6861 209.4 70.7792 206.424 69.6189 203.133C68.8333 200.93 68.3844 198.621 68.2875 196.284C68.2473 195.652 68.2473 195.017 68.2875 194.385C68.2805 194.166 68.3019 193.948 68.3514 193.734C68.426 193.734 68.3514 194.641 68.5005 196.273C68.6901 198.569 69.1955 200.827 70.0024 202.984C71.1873 206.182 73.0895 209.066 75.5625 211.412C77.0187 212.785 78.6878 213.913 80.5048 214.751C82.4592 215.643 84.546 216.208 86.6828 216.426C90.8217 216.877 94.9836 215.812 98.3995 213.428C100.696 211.742 102.567 209.541 103.861 207.001C105.156 204.462 105.839 201.653 105.856 198.802C105.93 197.127 105.728 196.231 105.802 196.22Z" fill="#263238"/>
<path d="M142.656 244.76C141.771 245.424 140.83 246.009 139.844 246.51C138.087 247.577 135.637 248.942 132.974 250.553C130.311 252.164 127.936 253.668 126.21 254.757C125.311 255.399 124.355 255.96 123.356 256.432C124.161 255.669 125.039 254.987 125.976 254.394C127.638 253.21 129.992 251.641 132.665 250.02C135.339 248.398 137.82 247.054 139.642 246.126C140.597 245.568 141.607 245.111 142.656 244.76Z" fill="#263238"/>
<path d="M34.6924 245.87C34.6924 245.87 34.7563 246.062 34.8735 246.435L35.3209 248.1L36.9932 254.501C38.4098 260.048 40.4336 267.964 42.8941 277.555L42.5852 277.384L86.5336 263.633L87.5988 263.238L87.3964 263.59C85.2819 253.732 82.3898 244.058 78.7473 234.658C75.3388 226.038 71.4297 218.559 67.0306 213.172C65.0699 210.72 62.7201 208.608 60.0751 206.92C58.0892 205.631 55.8255 204.834 53.4711 204.595C53.0203 204.521 52.5645 204.482 52.1077 204.477L50.8935 204.541C50.5207 204.541 50.1798 204.541 49.8283 204.616L48.9975 204.797L47.8471 205.032C47.7171 205.061 47.5855 205.082 47.453 205.096C47.572 205.039 47.6971 204.996 47.8258 204.968L48.9655 204.68L49.807 204.467C50.1265 204.403 50.4781 204.403 50.8722 204.36L52.0971 204.275C52.5598 204.269 53.0224 204.294 53.4818 204.349C55.8814 204.557 58.1968 205.336 60.2349 206.622C62.9205 208.296 65.3104 210.405 67.3075 212.863C71.8558 218.271 75.8288 225.771 79.2693 234.412C82.9506 243.835 85.8714 253.539 88.0035 263.43V263.697L87.7479 263.782L86.6827 264.177C70.2048 269.415 54.9411 274.034 42.6598 277.821L42.4148 277.896L42.3509 277.651C39.9756 268.049 38.0264 260.101 36.6523 254.543C35.9919 251.802 35.4806 249.647 35.1185 248.142L34.735 246.467C34.6958 246.271 34.6814 246.07 34.6924 245.87Z" fill="#263238"/>
<path d="M86.0864 257.594C86.0864 257.765 75.9887 260.699 63.4305 264.166C50.8723 267.633 40.6787 270.3 40.6787 270.14C40.6787 269.98 50.7658 267.036 63.324 263.569C75.8822 260.101 86.0331 257.434 86.0864 257.594Z" fill="#263238"/>
<path d="M82.2197 121.031C79.3119 114.715 71.3125 111.739 64.5701 113.414C57.8276 115.089 52.5019 120.604 49.6579 126.93C46.8139 133.257 46.0577 140.372 46.0044 147.328C46.0044 151.008 46.1642 154.732 45.4186 158.337C44.673 161.943 42.9048 165.507 39.8158 167.512C37.3873 169.091 34.4048 169.56 31.7952 170.819C29.1856 172.078 26.789 174.756 27.4387 177.594C28.2056 180.975 32.445 181.989 35.8854 182.341C35.9432 184.428 36.589 186.456 37.7482 188.192C38.9075 189.927 40.533 191.299 42.4372 192.149C44.3414 192.999 46.4468 193.292 48.5103 192.995C50.5738 192.698 52.5114 191.823 54.0996 190.47C53.0344 194.737 56.7944 199.133 61.119 199.645C65.4435 200.157 69.6402 197.447 72.0475 193.777C74.4547 190.107 75.1364 185.627 75.3175 181.263C75.4986 176.9 75.1897 172.484 75.6158 168.216" fill="#383854"/>
<path d="M131.291 128.978C131.291 128.978 134.487 107.535 105.024 107.141C72.0684 106.703 66.1248 134.878 71.7702 149.717L88.1523 133.459L131.291 128.978Z" fill="#475BE8"/>
<path d="M105.439 199.154C105.769 193.446 106.014 188.795 106.014 188.795C106.014 188.795 122.886 189.19 125.368 174.542C127.85 159.895 130.694 125.778 130.694 125.778C123.324 121.005 114.704 118.533 105.929 118.678C97.1531 118.822 88.6186 121.576 81.4092 126.589L80.0245 127.549L69.373 195.281C68.6133 200.03 69.7624 204.887 72.569 208.79C75.3755 212.692 79.6111 215.323 84.3491 216.106C86.8663 216.522 89.4428 216.402 91.9107 215.754C94.3786 215.106 96.6825 213.944 98.6723 212.345C100.662 210.746 102.293 208.744 103.459 206.472C104.625 204.199 105.3 201.705 105.439 199.154Z" fill="#FFBE9D"/>
<path d="M124.677 151.777C124.621 152.136 124.46 152.47 124.216 152.739C123.972 153.007 123.654 153.198 123.302 153.287C122.95 153.377 122.58 153.361 122.238 153.242C121.895 153.122 121.595 152.905 121.374 152.616C121.154 152.327 121.023 151.98 120.997 151.618C120.972 151.255 121.053 150.893 121.232 150.577C121.41 150.26 121.677 150.003 122 149.837C122.322 149.671 122.687 149.603 123.047 149.643C123.295 149.673 123.535 149.753 123.752 149.877C123.969 150.001 124.159 150.167 124.311 150.366C124.463 150.565 124.573 150.792 124.636 151.034C124.699 151.277 124.713 151.529 124.677 151.777Z" fill="#263238"/>
<path d="M126.04 150.016C125.774 150.24 124.549 148.949 122.578 148.576C120.608 148.203 119.021 149.067 118.85 148.779C118.68 148.491 119.053 148.224 119.756 147.829C120.684 147.341 121.748 147.176 122.781 147.36C123.818 147.536 124.769 148.05 125.486 148.821C126.03 149.429 126.168 149.92 126.04 150.016Z" fill="#263238"/>
<path d="M104.896 149.877C104.889 150.133 104.828 150.384 104.719 150.616C104.61 150.847 104.454 151.053 104.261 151.221C104.069 151.389 103.844 151.515 103.6 151.592C103.357 151.669 103.1 151.694 102.846 151.667C102.592 151.64 102.347 151.56 102.125 151.434C101.903 151.307 101.71 151.135 101.557 150.93C101.405 150.725 101.296 150.491 101.238 150.242C101.181 149.993 101.175 149.734 101.221 149.483C101.229 149.227 101.289 148.976 101.399 148.745C101.508 148.514 101.664 148.307 101.856 148.139C102.049 147.971 102.274 147.845 102.517 147.768C102.761 147.691 103.018 147.666 103.272 147.693C103.525 147.72 103.771 147.8 103.993 147.927C104.215 148.053 104.408 148.225 104.56 148.43C104.713 148.635 104.821 148.869 104.879 149.119C104.937 149.368 104.943 149.626 104.896 149.877Z" fill="#263238"/>
<path d="M105.876 148.213C105.621 148.437 104.385 147.093 102.425 146.773C100.465 146.453 98.8675 147.264 98.6864 146.965C98.6012 146.837 98.8994 146.41 99.6024 146.026C100.531 145.537 101.595 145.372 102.628 145.557C103.666 145.732 104.617 146.246 105.333 147.018C105.866 147.616 106.004 148.117 105.876 148.213Z" fill="#263238"/>
<path d="M108.422 163.469C109.518 163.401 110.618 163.48 111.692 163.704C112.204 163.778 112.694 163.8 112.864 163.458C113.015 162.917 113.015 162.345 112.864 161.805C112.704 160.396 112.545 158.924 112.374 157.377C111.746 151.083 111.426 145.973 111.66 145.941C111.895 145.909 112.598 150.987 113.237 157.281C113.375 158.828 113.514 160.3 113.642 161.709C113.795 162.427 113.709 163.177 113.397 163.842C113.285 164.005 113.138 164.139 112.966 164.236C112.794 164.332 112.603 164.387 112.406 164.397C112.116 164.402 111.826 164.37 111.543 164.301C110.47 164.168 109.42 163.888 108.422 163.469Z" fill="#263238"/>
<path d="M106.068 188.795C99.2564 187.746 92.8976 184.732 87.7686 180.122C87.7686 180.122 91.3475 191.771 105.802 192.732L106.068 188.795Z" fill="#EB996E"/>
<path d="M106.495 169.283C106.452 168.645 106.254 168.028 105.918 167.485C105.582 166.942 105.118 166.49 104.567 166.168C104.185 165.941 103.76 165.798 103.319 165.75C102.878 165.702 102.431 165.75 102.01 165.891C101.595 166.046 101.235 166.321 100.977 166.682C100.719 167.043 100.574 167.474 100.562 167.918C100.623 168.41 100.826 168.873 101.146 169.252C101.465 169.631 101.888 169.908 102.362 170.051C103.326 170.316 104.335 170.375 105.323 170.222C105.598 170.214 105.87 170.152 106.122 170.041C106.245 169.98 106.348 169.886 106.42 169.769C106.491 169.651 106.528 169.516 106.527 169.379" fill="#EB996E"/>
<path d="M102.192 163.949C102.053 163.949 101.734 164.439 101.681 165.41C101.642 166.699 102.071 167.957 102.888 168.953C103.704 169.95 104.853 170.616 106.122 170.83C107.092 170.968 107.667 170.755 107.656 170.606C107.656 170.275 105.377 170.158 103.79 168.216C102.203 166.274 102.511 164.002 102.192 163.949Z" fill="#263238"/>
<path d="M77.9589 146.656C77.7352 146.496 69.5654 142.964 67.2327 152.598C64.9 162.231 76.0629 161.25 76.1481 160.972C76.2333 160.695 77.9589 146.656 77.9589 146.656Z" fill="#FFBE9D"/>
<path d="M73.8578 156.929C73.8578 156.929 73.6554 157.004 73.3146 157.068C72.851 157.148 72.3744 157.057 71.9725 156.812C70.9712 156.204 70.4493 154.401 70.8221 152.651C70.9908 151.813 71.3559 151.027 71.8873 150.358C72.0652 150.071 72.3086 149.83 72.5975 149.656C72.8864 149.482 73.2125 149.378 73.5489 149.355C73.7608 149.345 73.9698 149.406 74.142 149.53C74.3142 149.654 74.4393 149.833 74.4969 150.038C74.5715 150.336 74.4969 150.518 74.4969 150.55C74.4969 150.582 74.7526 150.432 74.7739 150.016C74.7684 149.764 74.6741 149.523 74.5076 149.334C74.268 149.068 73.9367 148.904 73.5809 148.875C73.1495 148.857 72.7203 148.945 72.3305 149.131C71.9406 149.317 71.602 149.595 71.3441 149.942C70.7117 150.671 70.2722 151.548 70.0659 152.491C69.6611 154.454 70.2789 156.492 71.6742 157.207C71.9364 157.34 72.2231 157.417 72.5164 157.433C72.8096 157.45 73.1032 157.405 73.3785 157.303C73.7833 157.153 73.8898 156.951 73.8578 156.929Z" fill="#EB996E"/>
<path d="M127.35 119.025C129.043 120.252 130.315 121.975 130.991 123.956C131.666 125.938 131.711 128.08 131.121 130.088C129.672 134.697 125.38 139.689 113.45 139.529L116.166 136.51C113.482 138.561 110.345 139.936 107.019 140.519C103.694 141.102 100.277 140.876 97.057 139.86L100.402 133.374C100.402 133.374 85.3189 149.387 76.8936 150.08L77.9587 133.011C79.9932 116.902 86.8847 112.069 97.3126 111.205C101.186 110.853 105.086 110.921 108.944 111.408C115.623 112.349 121.956 114.97 127.35 119.025Z" fill="#383854"/>
<path d="M68.3725 105.071C69.1665 105.264 69.9201 105.597 70.5986 106.053C74.0242 108.057 76.7446 111.076 78.3849 114.694C78.7663 115.416 79.0186 116.199 79.1305 117.009C78.9495 117.094 77.7565 113.52 74.6995 110.181C71.6425 106.842 68.2659 105.274 68.3725 105.071Z" fill="#383854"/>
<path d="M38.005 159.682C38.005 159.682 37.8026 159.468 37.3446 159.18C36.665 158.77 35.8794 158.569 35.0864 158.604C34.4724 158.619 33.869 158.767 33.3174 159.038C32.7659 159.309 32.2793 159.696 31.891 160.172C31.4214 160.84 31.1274 161.615 31.0362 162.426C30.9449 163.237 31.0594 164.058 31.369 164.813C31.7469 165.72 32.3561 166.512 33.1356 167.109C33.9152 167.707 34.8376 168.088 35.8107 168.216C36.9375 168.388 38.0881 168.31 39.1814 167.987C40.2746 167.664 41.2839 167.105 42.1378 166.349C44.0969 164.705 45.4504 162.452 45.983 159.948C46.2653 158.641 46.2653 157.288 45.983 155.98C45.6614 154.623 45.1824 153.309 44.5557 152.065C43.9592 150.774 43.3201 149.504 42.8195 148.171C42.3295 146.859 42.0109 145.489 41.8715 144.095C41.6447 141.458 41.9527 138.802 42.7769 136.286C44.2046 132.055 46.6866 128.258 49.988 125.255C52.1583 123.222 54.5116 121.393 57.018 119.793C57.9021 119.228 58.6051 118.801 59.0844 118.524C59.3217 118.372 59.5711 118.24 59.83 118.129C59.6211 118.32 59.3926 118.488 59.1483 118.63L57.1565 119.996C54.7089 121.649 52.4037 123.505 50.2649 125.543C47.077 128.541 44.6801 132.284 43.2881 136.436C42.5094 138.88 42.2234 141.454 42.4467 144.01C42.5961 145.35 42.9036 146.668 43.3627 147.936C43.8527 149.227 44.4918 150.475 45.0989 151.787C45.742 153.073 46.2318 154.43 46.5582 155.83C46.8565 157.219 46.8565 158.656 46.5582 160.044C45.9827 162.673 44.5423 165.033 42.468 166.744C41.5513 167.544 40.4701 168.131 39.3011 168.465C38.1321 168.799 36.904 168.87 35.7042 168.675C34.6448 168.525 33.6445 168.095 32.8059 167.429C31.9673 166.763 31.3206 165.886 30.9323 164.888C30.6113 164.066 30.5025 163.177 30.6161 162.303C30.7297 161.428 31.0619 160.596 31.5821 159.884C32.0081 159.377 32.5418 158.971 33.1443 158.696C33.7469 158.421 34.4031 158.284 35.0651 158.295C35.8938 158.279 36.7063 158.526 37.3872 158.999C37.6367 159.183 37.8468 159.415 38.005 159.682Z" fill="#383854"/>
<path d="M76.5953 127.485C76.2593 126.907 76.0556 126.262 75.9988 125.597C75.7483 124.01 75.8099 122.39 76.1799 120.828C76.5402 119.262 77.2062 117.782 78.1398 116.475C78.8641 115.483 79.4606 115.003 79.5032 115.056C79.5458 115.11 77.5753 117.414 76.7764 120.967C75.9775 124.519 76.787 127.453 76.5953 127.485Z" fill="#263238"/>
<path d="M67.7976 158.615C67.2323 159.108 66.7938 159.73 66.5194 160.428C66.4027 160.796 66.3596 161.183 66.3925 161.568C66.4254 161.952 66.5337 162.326 66.7111 162.669C66.9603 163.069 67.2986 163.407 67.6996 163.655C68.1005 163.903 68.5533 164.054 69.0225 164.098C69.4888 164.172 69.9656 164.141 70.4187 164.008C70.8718 163.876 71.2898 163.644 71.6428 163.33C72.1944 162.778 72.5047 162.03 72.5056 161.25C72.4721 160.49 72.2368 159.754 71.8239 159.116C71.8239 159.116 72.0582 159.201 72.3245 159.532C72.6959 160.01 72.9116 160.591 72.9423 161.196C72.9728 161.653 72.9091 162.112 72.7552 162.543C72.6013 162.974 72.3604 163.369 72.0476 163.703C71.6372 164.092 71.1437 164.381 70.6046 164.549C70.0656 164.718 69.4953 164.76 68.9373 164.674C68.387 164.622 67.8566 164.441 67.3886 164.147C66.9206 163.852 66.5281 163.452 66.2425 162.978C66.0417 162.565 65.9295 162.114 65.913 161.655C65.8965 161.195 65.9761 160.738 66.1466 160.311C66.3564 159.747 66.7267 159.258 67.2118 158.903C67.5526 158.668 67.787 158.615 67.7976 158.615Z" fill="#455A64"/>
<path d="M133.741 133.886C133.624 133.886 134.093 132.243 134.104 129.619C134.138 126.137 133.22 122.713 131.45 119.717C129.679 116.721 127.123 114.268 124.059 112.624C121.726 111.355 120.075 110.992 120.107 110.875C120.503 110.881 120.896 110.953 121.268 111.088C122.301 111.373 123.304 111.759 124.262 112.24C127.471 113.832 130.15 116.322 131.974 119.409C133.798 122.495 134.69 126.046 134.54 129.629C134.5 130.707 134.357 131.779 134.114 132.83C134.039 133.197 133.914 133.553 133.741 133.886Z" fill="#383854"/>
<path d="M106.825 144.458C106.761 144.533 106.356 144.149 105.621 143.701C104.676 143.118 103.614 142.753 102.511 142.634C101.403 142.522 100.285 142.665 99.2407 143.05C98.4205 143.338 97.9518 143.626 97.8986 143.541C97.8453 143.455 98.2501 143.06 99.0702 142.644C100.155 142.106 101.371 141.888 102.575 142.015C103.777 142.147 104.919 142.608 105.877 143.349C106.59 143.925 106.888 144.415 106.825 144.458Z" fill="#FF725E"/>
<path d="M125.614 146.261C124.351 146.466 123.063 146.466 121.8 146.261C120.524 146.266 119.255 146.068 118.04 145.674C119.3 145.472 120.583 145.472 121.843 145.674C123.123 145.667 124.396 145.865 125.614 146.261Z" fill="#FF725E"/>
<path d="M194.327 238.989C194.327 238.989 200.366 224.619 192.196 226.187C179.681 228.577 181.545 240.77 181.545 240.77L194.327 238.989Z" fill="#EB996E"/>
<path d="M205.959 174.532C204.907 174.158 203.805 173.945 202.689 173.902C209.485 178.959 211.328 191.974 206.566 205.117C201.922 217.919 192.527 226.656 184.198 226.592L183.538 226.422C176.923 221.248 175.176 208.392 179.873 195.399C184.571 182.405 194.253 173.529 202.678 173.902C201.823 173.259 200.879 172.741 199.877 172.366C190.866 169.08 179.149 178.425 173.823 193.233C168.615 207.614 171.32 221.824 179.778 225.632H179.607L162.948 268.305C162.592 269.212 162.61 270.223 162.999 271.116C163.387 272.01 164.114 272.712 165.02 273.068C165.925 273.425 166.935 273.407 167.827 273.017C168.719 272.628 169.42 271.9 169.776 270.993L186.605 228.15C195.648 231.425 207.323 222.09 212.68 207.283C218.038 192.475 215.002 177.817 205.959 174.532Z" fill="#263238"/>
<path d="M198.439 213.129C198.558 212.677 198.73 212.24 198.95 211.828L200.506 208.382C202.274 204.621 203.651 200.689 204.617 196.647C205.543 192.617 205.543 188.43 204.617 184.4C204.149 182.75 203.558 181.138 202.849 179.578C203.16 179.929 203.419 180.325 203.616 180.751C204.217 181.872 204.692 183.056 205.033 184.282C206.105 188.37 206.168 192.658 205.214 196.775C204.243 200.843 202.795 204.783 200.9 208.51C200.186 209.939 199.59 211.092 199.164 211.87C198.979 212.321 198.736 212.744 198.439 213.129Z" fill="#263238"/>
<path d="M196.692 216.543C196.809 216.671 196.298 217.386 195.531 218.143C194.764 218.901 194.061 219.413 193.944 219.295C193.827 219.178 194.338 218.463 195.105 217.706C195.872 216.948 196.575 216.426 196.692 216.543Z" fill="#263238"/>
<path d="M178.521 232.567C177.232 230.124 175.73 226.753 173.461 225.174C171.192 223.595 168.04 221.77 165.377 224.107C168.726 228.896 171.829 233.852 174.676 238.957L178.521 232.567Z" fill="#EB996E"/>
<path d="M196.266 228.246C196.266 228.246 195.765 225.408 191.611 226.657C187.457 227.905 174.441 230.625 176.955 233.399C179.469 236.173 183.91 234.924 183.91 234.924C183.91 234.924 176.678 236.493 177.37 238.008C178.063 239.522 179.266 242.147 182.344 240.504C185.423 238.861 193.965 236.077 193.965 236.077L196.266 228.246Z" fill="#EB996E"/>
<path d="M195.798 234.583C195.798 234.583 195.798 234.306 195.798 233.868C195.788 233.574 195.688 233.29 195.513 233.054C195.338 232.818 195.096 232.64 194.818 232.545C193.893 232.44 192.956 232.58 192.102 232.951L188.64 233.879C186.179 234.53 183.942 235.074 182.313 235.436C181.445 235.694 180.552 235.855 179.65 235.917C180.465 235.521 181.323 235.221 182.206 235.02C183.804 234.54 186.02 233.954 188.48 233.292L191.952 232.407C192.909 232.024 193.956 231.928 194.967 232.129C195.307 232.27 195.593 232.516 195.784 232.83C195.976 233.145 196.062 233.512 196.032 233.879C196 234.359 195.819 234.594 195.798 234.583Z" fill="#263238"/>
<path d="M84.7224 264.785L97.2913 288.127L159.688 256.656C159.688 256.656 168.87 238.989 170.393 239.213C171.916 239.437 178.669 242.35 178.669 242.35C178.669 242.35 188.256 237.165 190.322 238.573C192.389 239.981 195.179 257.05 193.368 262.331C191.558 267.612 172.609 278.248 172.609 278.248C172.609 278.248 121.481 311.874 99.2512 323.684C84.6159 331.472 71.7062 322.18 63.0358 307.458L48.2515 276.125" fill="#FFBE9D"/>
</svg>
