<svg width="17" height="15" viewBox="0 0 17 15" fill="none" xmlns="http://www.w3.org/2000/svg">
<path fill-rule="evenodd" clip-rule="evenodd" d="M6.66634 1.66666C5.74586 1.66666 4.99967 2.41286 4.99967 3.33333C4.99967 4.2538 5.74586 4.99999 6.66634 4.99999C7.58681 4.99999 8.333 4.2538 8.333 3.33333C8.333 2.41286 7.58681 1.66666 6.66634 1.66666ZM3.33301 3.33333C3.33301 1.49238 4.82539 0 6.66634 0C8.50728 0 9.99967 1.49238 9.99967 3.33333C9.99967 5.17428 8.50728 6.66666 6.66634 6.66666C4.82539 6.66666 3.33301 5.17428 3.33301 3.33333Z" fill="white"/>
<path fill-rule="evenodd" clip-rule="evenodd" d="M4.16666 9.66666C2.78595 9.66666 1.66666 10.786 1.66666 12.1667V13.8333C1.66666 14.2936 1.29357 14.6667 0.833332 14.6667C0.373096 14.6667 0 14.2936 0 13.8333V12.1667C0 9.86548 1.86548 8 4.16666 8H9.16666C11.4678 8 13.3333 9.86548 13.3333 12.1667V13.8333C13.3333 14.2936 12.9602 14.6667 12.5 14.6667C12.0397 14.6667 11.6667 14.2936 11.6667 13.8333V12.1667C11.6667 10.786 10.5474 9.66666 9.16666 9.66666H4.16666Z" fill="white"/>
<path d="M14.9999 14.1667C14.9999 14.6269 15.373 15 15.8332 15C16.2934 15 16.6665 14.6269 16.6665 14.1667V12.5C16.6665 10.2833 14.9354 8.47084 12.7513 8.34082C13.6281 9.11728 14.2988 10.1211 14.6711 11.26C14.8803 11.6255 14.9999 12.0488 14.9999 12.5V14.1667Z" fill="white"/>
<path d="M10.4164 6.64054C12.0608 6.43561 13.3333 5.03289 13.3333 3.33296C13.3333 1.63304 12.0608 0.230315 10.4164 0.0253906C11.1945 0.906843 11.6666 2.06477 11.6666 3.33296C11.6666 4.60116 11.1945 5.75909 10.4164 6.64054Z" fill="white"/>
</svg>
